<svg width="25" height="32" viewBox="0 0 25 32" fill="none" xmlns="http://www.w3.org/2000/svg">
<path fill-rule="evenodd" clip-rule="evenodd" d="M9.46139 6.98149C9.71493 8.58731 9.96866 10.1931 10.2222 11.7988C11.9132 11.7988 13.6038 11.7988 15.2949 11.7988C16.3157 11.7988 16.9093 14.4191 15.7128 14.6676C14.8217 14.7241 11.7955 14.686 10.763 14.686C10.8022 14.901 10.8419 15.1163 10.8816 15.3313C12.9335 15.3313 14.9851 15.3313 17.037 15.3313C17.4022 15.3313 17.7146 15.5581 17.8404 15.8786C19.1428 18.5847 20.4453 21.2906 21.7476 23.997C22.1365 23.7502 22.5257 23.5036 22.9143 23.257C24.063 22.5659 25.7561 24.7597 24.3243 25.709C23.3093 26.464 21.2034 28.2785 20.1894 27.3501C18.6543 24.3502 17.194 21.4385 15.7281 18.4605C13.4708 18.4605 11.2131 18.4605 8.95585 18.4605C8.58251 18.4605 8.24633 18.1874 8.12633 17.8555C7.56177 14.0882 6.98888 10.4521 6.416 6.71169C5.39777 5.92533 4.80244 4.86956 4.80244 3.5645C4.80244 -1.02477 11.5137 -1.2367 11.8307 3.24341C11.9443 4.85001 11.1649 6.58221 9.46139 6.98149ZM6.25439 16.1248L5.76628 12.8673C-7.83665 22.4302 5.1332 38.9103 18.8133 28.1753L17.3879 25.3568C8.30671 34.3133 -2.51482 23.5177 6.25439 16.1248Z" fill="#272323"/>
</svg>
