<svg xmlns="http://www.w3.org/2000/svg" width="19" height="32" fill="none" viewBox="0 0 19 32"><g opacity=".5"><path fill="#272323" d="M5.29738 0C2.85744 0 0.873047 1.98482 0.873047 4.42434C0.873047 6.86386 2.85786 8.84825 5.29738 8.84825C7.7369 8.84825 9.7213 6.86344 9.7213 4.42434C9.72172 1.9844 7.7369 0 5.29738 0Z"/><path fill="#272323" d="M5.29738 22.7668C2.85744 22.7668 0.873047 24.7517 0.873047 27.1912C0.873047 29.6307 2.85786 31.6151 5.29738 31.6151C7.7369 31.6151 9.7213 29.6303 9.7213 27.1912C9.72172 24.7512 7.7369 22.7668 5.29738 22.7668Z"/><path fill="#272323" d="M16.5982 6.2785C17.6921 6.2785 18.5822 5.38842 18.5822 4.2941C18.5822 3.20021 17.6921 2.31055 16.5982 2.31055C15.5043 2.31055 14.6143 3.20021 14.6143 4.2941C14.6143 5.38842 15.5048 6.2785 16.5982 6.2785Z"/><path fill="#272323" d="M16.5982 13.6753C15.5043 13.6753 14.6143 14.565 14.6143 15.6588C14.6143 16.7532 15.5043 17.6432 16.5982 17.6432C17.6921 17.6432 18.5822 16.7532 18.5822 15.6588C18.5822 14.565 17.6921 13.6753 16.5982 13.6753Z"/><path fill="#272323" d="M7.28094 16.1029C7.28094 15.009 6.39086 14.1194 5.29696 14.1194C4.20307 14.1194 3.31299 15.009 3.31299 16.1029C3.31299 17.1973 4.20307 18.0873 5.29696 18.0873C6.39086 18.0873 7.28094 17.1973 7.28094 16.1029Z"/><path fill="#272323" d="M16.5982 24.7625C15.5043 24.7625 14.6143 25.6521 14.6143 26.746C14.6143 27.8403 15.5043 28.7304 16.5982 28.7304C17.6921 28.7304 18.5822 27.8403 18.5822 26.746C18.5822 25.6521 17.6921 24.7625 16.5982 24.7625Z"/></g></svg>