<svg xmlns="http://www.w3.org/2000/svg" width="10" height="11" fill="none" viewBox="0 0 10 11"><path fill="inherit" d="M5.91603 5.50007L9.80991 1.60608C10.0633 1.35279 10.0633 0.943255 9.80991 0.689966C9.55662 0.436678 9.14709 0.436678 8.8938 0.689966L4.9998 4.58396L1.10592 0.689966C0.852513 0.436678 0.4431 0.436678 0.189811 0.689966C-0.0635959 0.943255 -0.0635959 1.35279 0.189811 1.60608L4.08369 5.50007L0.189811 9.39407C-0.0635959 9.64736 -0.0635959 10.0569 0.189811 10.3102C0.31604 10.4365 0.482012 10.5 0.647866 10.5C0.813719 10.5 0.979573 10.4365 1.10592 10.3102L4.9998 6.41618L8.8938 10.3102C9.02015 10.4365 9.186 10.5 9.35185 10.5C9.51771 10.5 9.68356 10.4365 9.80991 10.3102C10.0633 10.0569 10.0633 9.64736 9.80991 9.39407L5.91603 5.50007Z"/></svg>