<svg width="17" height="16" viewBox="0 0 17 16" fill="none" xmlns="http://www.w3.org/2000/svg">
<path fill-rule="evenodd" clip-rule="evenodd" d="M2.5 16H14.5C15.604 16 16.5 15.104 16.5 14V2C16.5 0.896 15.604 0 14.5 0H2.5C1.396 0 0.5 0.896 0.5 2V14C0.5 15.104 1.396 16 2.5 16ZM8.50001 2C6.8705 2 6.66617 2.00691 6.02621 2.03611C5.38758 2.06523 4.95142 2.16667 4.56977 2.315C4.17522 2.46831 3.84061 2.67347 3.50703 3.00703C3.17347 3.34061 2.96831 3.67522 2.815 4.06977C2.66667 4.45142 2.56523 4.88758 2.53611 5.52621C2.50691 6.16617 2.5 6.3705 2.5 8.00001C2.5 9.6295 2.50691 9.83383 2.53611 10.4738C2.56523 11.1124 2.66667 11.5486 2.815 11.9302C2.96831 12.3248 3.17347 12.6594 3.50703 12.993C3.84061 13.3265 4.17522 13.5317 4.56977 13.685C4.95142 13.8333 5.38758 13.9348 6.02621 13.9639C6.66617 13.9931 6.8705 14 8.50001 14C10.1295 14 10.3338 13.9931 10.9738 13.9639C11.6124 13.9348 12.0486 13.8333 12.4302 13.685C12.8248 13.5317 13.1594 13.3265 13.493 12.993C13.8265 12.6594 14.0317 12.3248 14.185 11.9302C14.3333 11.5486 14.4348 11.1124 14.4639 10.4738C14.4931 9.83383 14.5 9.6295 14.5 8.00001C14.5 6.3705 14.4931 6.16617 14.4639 5.52621C14.4348 4.88758 14.3333 4.45142 14.185 4.06977C14.0317 3.67522 13.8265 3.34061 13.493 3.00703C13.1594 2.67347 12.8248 2.46831 12.4302 2.315C12.0486 2.16667 11.6124 2.06523 10.9738 2.03611C10.3338 2.00691 10.1295 2 8.50001 2ZM10.9245 3.11604C11.5095 3.14272 11.8272 3.24046 12.0386 3.32263C12.3187 3.43147 12.5186 3.56149 12.7285 3.77146C12.9385 3.98141 13.0685 4.18128 13.1774 4.46135C13.2595 4.67277 13.3573 4.99047 13.3839 5.57546C13.4128 6.20814 13.4189 6.39791 13.4189 7.99999C13.4189 9.60204 13.4128 9.79181 13.3839 10.4245C13.3573 11.0095 13.2595 11.3272 13.1774 11.5386C13.0685 11.8187 12.9385 12.0185 12.7285 12.2285C12.5186 12.4385 12.3187 12.5685 12.0386 12.6773C11.8272 12.7595 11.5095 12.8572 10.9245 12.8839C10.2919 12.9128 10.1022 12.9189 8.50002 12.9189C6.89783 12.9189 6.7081 12.9128 6.0755 12.8839C5.4905 12.8572 5.17281 12.7595 4.96138 12.6773C4.68132 12.5685 4.48145 12.4385 4.2715 12.2285C4.06155 12.0185 3.93151 11.8187 3.82267 11.5386C3.7405 11.3272 3.64275 11.0095 3.61608 10.4245C3.58721 9.79181 3.58109 9.60204 3.58109 7.99999C3.58109 6.39791 3.58721 6.20814 3.61608 5.57546C3.64275 4.99047 3.7405 4.67277 3.82267 4.46135C3.93151 4.18128 4.06153 3.98141 4.2715 3.77146C4.48145 3.56149 4.68132 3.43147 4.96138 3.32263C5.17281 3.24046 5.4905 3.14272 6.0755 3.11604C6.70817 3.08718 6.89795 3.08105 8.50002 3.08105C10.1021 3.08105 10.2919 3.08718 10.9245 3.11604ZM5.41892 7.99994C5.41892 6.29828 6.79836 4.91885 8.50001 4.91885C10.2016 4.91885 11.5811 6.29828 11.5811 7.99994C11.5811 9.70157 10.2016 11.081 8.50001 11.081C6.79836 11.081 5.41892 9.70157 5.41892 7.99994ZM8.50002 9.9999C7.39544 9.9999 6.50001 9.10448 6.50001 7.99991C6.50001 6.89533 7.39544 5.9999 8.50002 5.9999C9.60459 5.9999 10.5 6.89533 10.5 7.99991C10.5 9.10448 9.60459 9.9999 8.50002 9.9999ZM12.4228 4.79716C12.4228 5.19481 12.1005 5.51715 11.7028 5.51715C11.3052 5.51715 10.9828 5.19481 10.9828 4.79716C10.9828 4.39951 11.3052 4.07715 11.7028 4.07715C12.1005 4.07715 12.4228 4.39951 12.4228 4.79716Z" fill="#272323"/>
</svg>
