<svg width="38" height="52" viewBox="0 0 38 52" fill="none" xmlns="http://www.w3.org/2000/svg">
<path d="M35.7414 40.6585C34.5369 40.6585 33.3323 40.3639 32.4289 40.5112C31.5254 40.6585 29.8691 40.8058 29.4174 40.8058C29.4174 40.8058 29.2669 40.8058 29.1163 40.9531C28.9657 41.1004 28.8151 41.8369 28.6646 41.8369C28.3634 41.9842 28.0623 41.9842 27.46 41.9842C26.8577 41.8369 26.7071 41.6896 26.7071 41.5423C26.7071 41.395 27.0083 41.1004 27.0083 40.6585C27.0083 40.2167 27.0083 39.7748 26.8577 39.4802C26.5566 39.1856 26.406 39.1856 26.406 38.891C26.406 38.5964 25.8037 36.9762 25.6531 36.6816C25.6531 36.6816 25.352 36.0925 25.2014 35.9452C25.352 35.7979 26.2554 35.2087 26.2554 34.4723C26.2554 33.7358 25.6531 32.9993 25.6531 32.9993L25.5026 32.1156C25.352 31.821 24.9003 31.6737 24.7497 31.3791C24.5991 31.0846 25.2014 30.6427 25.0509 30.2008C25.0509 29.7589 24.7497 29.3171 24.7497 29.0225C24.7497 28.7279 24.7497 27.8441 24.5991 27.4023C24.4486 26.9604 23.6957 26.8131 23.6957 26.8131C23.8463 26.5185 24.1474 26.0766 23.9969 25.6348C23.9969 25.1929 23.244 24.6037 23.244 24.4564C23.244 24.3091 23.0934 24.0145 22.9429 23.8673C22.7923 23.72 22.4911 23.5727 22.4911 23.4254C22.4911 23.2781 22.6417 23.1308 22.6417 22.8362C22.6417 22.6889 22.4911 22.247 22.4911 22.0998C22.4911 21.9525 22.6417 21.6579 22.3406 21.0687C22.0394 20.6268 21.2866 20.6268 21.2866 20.185C21.2866 19.8904 21.7383 19.3012 21.7383 19.0066C21.7383 18.712 21.5877 18.4175 21.4371 18.4175C21.4371 18.4175 20.8349 18.2702 20.8349 18.1229C20.8349 18.1229 20.9854 17.9756 20.9854 17.3864C20.9854 16.7972 20.8349 16.3554 20.6843 16.2081C20.5337 15.9135 20.3831 15.7662 20.3831 15.7662C20.3831 15.6189 20.6843 15.4716 20.6843 15.0297C20.6843 14.5879 20.5337 14.2933 20.3831 14.2933C20.2326 14.146 19.9314 14.146 19.9314 13.8514C19.9314 13.5568 19.4797 14.146 19.6303 13.8514C19.6303 13.7041 19.9314 13.5568 19.9314 13.2622C19.9314 12.9677 19.9314 12.6731 19.9314 12.6731C19.9314 12.6731 19.4797 12.3785 19.4797 12.2312C19.4797 12.0839 19.4797 11.9366 19.3291 11.7893C19.3291 11.642 19.1786 11.642 19.1786 11.4947C19.1786 11.3474 19.4797 10.9056 19.3291 10.7583C19.3291 10.7583 19.1786 10.4637 19.1786 10.1691C19.1786 9.87452 19.1786 9.72723 19.028 9.43265C18.8774 9.13807 18.4257 9.13806 18.4257 8.84348C18.4257 8.5489 18.4257 8.40161 18.4257 8.25431C18.4257 8.10702 18.4257 7.95973 18.4257 7.95973C18.4257 7.95973 18.7269 7.51785 18.7269 7.22327C18.7269 6.78139 18.4257 6.6341 18.2752 6.48681C18.1246 6.33952 17.5223 6.19223 17.3717 5.75035C17.3717 5.30848 17.8234 5.45577 17.8234 4.71931C17.8234 3.98285 17.2212 3.98285 17.0706 3.98285C17.0706 3.83556 17.0706 3.0991 16.92 2.80451C16.7694 2.36264 16.1672 2.06805 16.1672 1.77347C16.1672 1.47889 16.3177 1.3316 16.3177 0.889719C16.3177 0.889719 16.3177 0.447844 16.0166 0.15326C15.7154 -0.141324 15.2637 0.00596802 14.812 0.447844C14.3603 0.889719 14.5109 1.33159 14.812 1.62618C14.812 1.77347 14.812 2.06805 14.812 2.06805C14.812 2.06805 14.3603 2.06805 14.2097 2.21535C14.0592 2.36264 14.0592 2.95181 14.0592 3.0991C14.0592 3.24639 13.758 3.68827 13.758 3.68827C13.6074 3.68827 13.1557 3.54097 12.8546 4.13014C12.5534 4.71931 12.8546 5.16118 12.8546 5.30848C12.8546 5.45577 12.4029 5.89764 12.1017 6.33952C11.8006 6.92869 11.8006 7.37056 11.9512 7.51785C11.8006 7.51785 11.3489 7.66515 11.0477 7.95973C11.0477 7.95973 10.7466 8.40161 10.8972 8.84348C10.8972 8.99077 11.0477 9.13807 11.0477 9.28536C11.0477 9.43265 10.8972 9.72723 10.7466 9.87452C10.596 10.0218 10.2949 9.72723 9.99372 10.1691C9.69258 10.611 9.69258 10.9056 9.54201 11.0529C9.54201 11.2002 9.39144 11.3474 9.39144 11.4947C9.39144 11.642 9.39144 11.7893 9.39144 11.7893C9.39144 11.9366 9.0903 12.2312 8.93973 12.5258C8.63858 12.6731 8.33744 12.9677 8.18687 13.4095C8.0363 13.8514 8.18687 14.4406 8.18687 14.5879C8.18687 14.7352 8.0363 15.177 7.73515 15.3243C7.43401 15.4716 6.9823 15.4716 6.68116 15.7662C6.38001 16.0608 6.22944 16.5027 6.38001 16.9445C6.53058 17.2391 6.38001 17.5337 6.07887 17.5337C5.77773 17.5337 5.32601 17.8283 4.8743 18.2702C4.42258 18.712 4.57316 19.1539 4.42258 19.1539C4.27201 19.3012 3.97087 19.3012 3.97087 19.4485C3.97087 19.5958 3.8203 19.8904 3.8203 19.8904C3.8203 19.8904 2.31459 17.5337 1.56173 17.9756C0.6583 18.4175 1.7123 20.6268 1.86287 20.9214C2.01344 21.0687 2.31459 21.6579 2.31459 21.9525C2.31459 22.0998 1.11001 23.2781 0.6583 25.782C0.206586 28.1387 -0.395699 30.6427 0.357157 33.8831C1.11001 37.1235 2.91687 39.1856 3.51916 39.9221C4.12144 40.6585 5.17544 41.6896 5.32601 42.8679C5.47658 44.0462 5.32601 45.8137 5.32601 45.961C5.47658 46.1083 5.47658 46.2556 5.77773 46.1083C6.07887 46.1083 6.38001 45.8137 6.53058 44.7827C6.53058 44.7827 6.68115 46.8448 7.73515 47.8758C8.78915 48.9069 9.84315 49.0542 9.84315 49.496C10.1443 49.9379 9.84315 51.2635 10.596 51.5581C11.3489 51.8527 14.5109 52 15.866 52C17.2211 51.8527 19.028 51.7054 19.3291 51.2635C19.6303 50.8217 19.4797 49.6433 19.7809 49.6433C19.9314 49.6433 27.0083 49.7906 30.4714 48.9069C33.9346 47.8758 37.2471 44.3408 38 41.395C37.8494 40.5112 36.946 40.6585 35.7414 40.6585ZM24.4486 40.2167C24.298 40.8058 24.4486 41.1004 24.4486 41.2477C24.298 41.2477 23.9969 41.395 23.8463 41.395C23.6957 41.395 23.0934 41.1004 22.7923 41.1004C22.3406 40.9531 22.4911 40.9531 22.0394 40.8058C21.5877 40.6585 21.4371 40.6585 21.2866 40.6585C21.136 40.6585 21.136 40.5112 20.9854 40.3639C20.8349 40.3639 20.3831 40.0694 20.3831 40.0694C20.3831 39.9221 20.3831 38.7437 20.2326 38.4492C20.082 38.1546 19.9314 38.0073 19.9314 38.0073C19.9314 38.0073 20.082 38.0073 20.082 37.7127C20.082 37.7127 20.082 37.2708 19.6303 37.2708C19.3291 37.2708 19.028 37.2708 18.8774 37.1235C18.8774 37.1235 18.2751 36.6816 17.974 36.6816C17.6729 36.6816 17.2211 36.5344 17.2211 36.5344C17.2211 36.5344 17.0706 36.3871 16.92 36.3871C16.7694 36.3871 16.1672 36.2398 16.1672 36.0925C16.0166 35.9452 16.1672 35.6506 16.4683 35.356C16.7694 35.0614 16.6189 34.9141 16.6189 34.7669C16.6189 34.6196 16.7694 34.4723 16.7694 34.325C16.7694 34.1777 16.6189 33.8831 16.3177 33.7358C16.0166 33.5885 15.5649 33.4412 15.4143 33.5885C15.2637 33.5885 14.812 33.2939 14.3603 33.8831C13.9086 34.4723 13.9086 34.9141 14.0592 35.0614C14.0592 35.2087 14.3603 35.5033 14.3603 35.6506C14.3603 35.9452 13.3063 36.0925 12.4029 36.0925C11.4994 36.2398 11.1983 36.2398 11.1983 36.2398C11.1983 36.2398 10.8972 35.6506 10.4454 35.5033C9.99372 35.356 9.54201 35.356 9.54201 35.356C9.54201 35.356 9.0903 35.0614 8.48801 35.356C8.33744 35.356 8.0363 35.6506 7.73515 35.7979C7.58458 35.9452 7.13287 36.0925 6.9823 36.3871C6.83173 36.5344 6.68115 36.8289 6.38001 36.8289C6.07887 36.8289 5.77773 36.2398 5.62716 35.9452C5.47658 35.6506 5.32601 35.0614 4.8743 34.325C4.42258 33.5885 4.12144 32.5575 3.97087 31.3791C3.8203 30.2008 4.12144 28.5806 4.8743 28.1387C5.32601 28.5806 5.62716 28.8752 5.77773 29.0225C5.9283 29.3171 6.07887 29.6116 6.07887 29.6116L6.22944 29.7589C6.22944 29.7589 6.68115 30.9373 6.9823 30.79C7.43401 30.6427 7.13287 29.9062 7.13287 29.7589C7.13287 29.6116 7.13287 29.4643 7.13287 29.3171C7.13287 29.1698 7.88573 29.0225 8.18687 28.8752C8.48801 28.7279 8.93972 28.4333 9.24087 28.4333C9.39144 28.5806 9.54201 28.8752 9.69258 29.0225C9.84315 29.1698 10.4454 29.6116 11.0477 29.3171C11.65 29.0225 11.8006 28.7279 11.8006 28.5806C11.8006 28.4333 11.9512 28.286 11.9512 27.9914C11.9512 27.6968 11.65 27.4023 11.3489 27.255C11.0477 27.1077 10.7466 27.1077 10.7466 26.9604C10.596 26.8131 10.596 26.6658 10.596 26.5185C10.596 26.3712 10.596 26.2239 10.4454 25.9293C10.2949 25.4875 9.99372 25.3402 9.99372 25.3402V25.1929L9.69258 25.0456C9.69258 25.0456 9.69258 24.8983 9.54201 24.751C9.39144 24.6037 9.24087 24.4564 9.24087 24.4564V24.3091C9.0903 24.1618 8.93973 24.0145 8.93973 24.0145C8.93973 23.8673 8.0363 22.9835 8.0363 22.9835C8.0363 22.9835 7.88573 22.5416 7.73515 22.3943C7.58458 22.0998 7.13287 21.6579 6.9823 21.6579C6.9823 21.6579 6.83173 21.3633 6.9823 21.216C7.13287 20.9214 7.88573 20.0377 7.88573 19.5958C7.88573 19.1539 7.73515 18.8593 7.73515 18.712C7.58458 18.5647 7.28344 18.2702 7.28344 18.1229C7.43401 18.1229 8.18687 17.681 8.33744 17.3864C8.48801 17.0918 8.48801 16.65 8.48801 16.5027C8.48801 16.3554 8.18687 16.0608 8.33744 15.7662C8.48801 15.6189 8.63858 15.3243 8.63858 15.3243C8.63858 15.177 8.78915 15.0297 8.78915 15.0297C8.93973 15.0297 9.69258 15.0297 9.99372 14.4406C10.2949 13.9987 9.99372 12.9677 9.99372 12.9677C9.99372 12.9677 10.1443 12.8204 10.1443 12.6731C10.1443 12.5258 9.99372 12.3785 10.1443 12.2312L10.4454 12.0839C10.596 11.9366 10.7466 11.642 10.8972 11.642C11.0477 11.642 11.3489 11.642 11.4994 11.3474C11.65 11.0529 11.8006 10.7583 11.65 10.4637C11.65 10.1691 11.3489 9.87452 11.4994 9.57994C11.65 9.28536 12.1017 9.43265 12.4029 8.99077C12.704 8.69619 12.704 8.25431 12.704 8.10702C12.704 7.95973 12.5534 7.95973 12.5534 7.95973C12.704 7.95973 13.1557 7.66515 13.1557 7.37056C13.1557 7.07598 13.1557 6.78139 13.1557 6.78139C13.1557 6.78139 13.6074 6.33952 13.6074 6.04494C13.6074 5.75035 13.758 5.45577 13.758 5.45577C13.758 5.45577 14.2097 5.45577 14.3603 5.16118C14.5109 5.01389 14.6614 4.71931 14.6614 4.42472C14.6614 4.27743 14.3603 4.13014 14.3603 3.98285C14.3603 3.83556 14.3603 3.83556 14.3603 3.83556C14.3603 3.83556 15.2637 3.54097 15.4143 3.24639C15.5649 3.0991 15.5649 2.80451 15.5649 2.65722C15.5649 2.50993 15.4143 2.21535 15.4143 2.21535C15.4143 2.21535 15.5649 2.21535 15.5649 2.06805C15.5649 2.21535 15.5649 2.36264 15.5649 2.65722C15.7154 2.80451 15.5649 2.95181 15.5649 2.95181C15.5649 2.95181 15.5649 3.0991 15.7154 3.0991C15.866 3.0991 15.866 3.24639 15.866 3.24639V3.39368C15.866 3.39368 15.7154 3.54097 15.866 3.68827C15.866 3.83556 16.0166 3.98285 16.3177 4.13014C16.3177 4.13014 15.866 4.71931 16.1672 5.16118C16.4683 5.60306 16.6189 5.60306 16.7694 5.89764C16.92 6.19223 17.0706 6.48681 17.0706 6.48681C17.0706 6.48681 16.7694 6.6341 16.6189 6.92869V7.22327C16.6189 7.22327 16.4683 7.22327 16.4683 7.37056C16.4683 7.51785 16.7694 7.95973 16.92 8.25431C16.92 8.25431 17.0706 8.84348 17.5223 9.13806C17.3717 9.43265 17.2211 9.87452 17.2211 10.0218C17.2211 10.1691 17.0706 10.3164 17.2211 10.3164C17.2211 10.4637 17.3717 10.4637 17.3717 10.4637C17.3717 10.4637 17.3717 10.9056 17.5223 11.2002C17.8234 11.4947 18.2752 11.7893 18.2752 11.7893C18.2752 11.9366 18.4257 12.0839 18.2752 12.3785C18.2752 12.3785 17.8234 12.9677 17.974 13.4095C18.1246 13.8514 18.4257 13.8514 18.5763 13.9987C18.7269 13.9987 18.8774 14.146 18.8774 14.146C18.8774 14.146 18.7269 14.146 18.8774 14.2933C18.8774 14.4406 19.028 14.8825 19.028 14.8825C19.028 15.0297 18.8774 15.3243 18.8774 15.6189C18.8774 15.9135 19.1786 16.2081 19.4797 16.3554C19.4797 16.5027 19.3291 16.65 19.4797 17.0918C19.6303 17.5337 19.6303 17.681 19.6303 17.681C19.6303 17.681 19.9314 18.5647 20.082 18.712C19.9314 18.8593 19.6303 19.1539 19.7809 19.5958C19.7809 19.7431 19.7809 19.8904 19.7809 20.0377C19.7809 20.185 19.9314 20.185 19.9314 20.185C19.9314 20.3322 19.9314 20.4795 20.3831 20.4795C20.3831 20.6268 20.5337 21.0687 20.6843 21.216C20.6843 21.216 20.082 21.6579 20.2326 22.247C20.3831 22.8362 20.6843 22.9835 20.8349 23.1308C20.9854 23.2781 20.9854 23.5727 21.136 23.72C21.2866 23.8673 21.4371 24.0145 21.4371 24.0145L21.2866 24.6037C21.2866 24.751 21.2866 24.8983 21.2866 24.8983L21.136 25.3402C21.136 25.3402 21.136 25.6348 20.9854 25.6348C20.9854 25.6348 20.8349 26.0766 20.9854 26.3712C21.136 26.6658 21.4371 27.1077 21.5877 27.255C21.7383 27.4023 21.8889 27.5495 21.8889 27.6968C21.8889 27.6968 21.7383 27.8441 21.7383 27.9914C21.7383 28.1387 21.5877 28.286 21.5877 28.7279C21.5877 29.1698 22.0394 29.7589 22.0394 30.0535C22.19 30.3481 22.0394 30.79 22.19 31.0846C22.3406 31.2318 22.9429 31.821 22.7923 31.9683C22.6417 32.1156 22.6417 32.7048 22.6417 32.8521C22.6417 32.9993 22.7923 33.2939 22.7923 33.4412C22.7923 33.5885 22.3406 34.1777 22.4911 34.7669C22.6417 35.5033 22.7923 35.9452 23.0934 36.0925C23.3946 36.2398 23.9969 36.8289 24.1474 37.1235C24.298 37.4181 24.5991 38.7437 24.5991 39.0383C24.5991 39.3329 24.7497 39.4802 24.7497 39.4802C24.7497 39.4802 24.5991 39.6275 24.4486 40.2167Z" fill="white"/>
</svg>
